<?xml version="1.0" standalone="no"?>
<!DOCTYPE svg PUBLIC "-//W3C//DTD SVG 20010904//EN"
 "http://www.w3.org/TR/2001/REC-SVG-20010904/DTD/svg10.dtd">
<svg version="1.0" xmlns="http://www.w3.org/2000/svg"
 width="500.000000pt" height="500.000000pt" viewBox="0 0 500.000000 500.000000"
 preserveAspectRatio="xMidYMid meet">

<g transform="translate(0.000000,500.000000) scale(0.100000,-0.100000)"
fill="#000000" stroke="none">
<path d="M2325 4739 c-290 -22 -541 -92 -820 -229 -667 -328 -1121 -957 -1230
-1705 -24 -158 -24 -457 -1 -610 73 -486 279 -909 608 -1251 459 -477 1114
-731 1767 -685 894 63 1661 643 1966 1486 86 237 127 479 128 750 0 365 -76
693 -238 1015 -130 258 -350 539 -552 702 -40 32 -74 70 -88 98 -13 25 -38 59
-57 77 -44 43 -134 83 -184 83 -29 0 -75 16 -155 54 -274 129 -511 193 -811
216 -138 11 -189 11 -333 -1z"/>
</g>
</svg>
